<svg width="33" height="32" viewBox="0 0 33 32" fill="none" xmlns="http://www.w3.org/2000/svg">
<g clip-path="url(#clip0_322_10729)">
<path fill-rule="evenodd" clip-rule="evenodd" d="M16.498 10.0009C12.079 10.0009 8.49805 13.5819 8.49805 18.0009C8.49805 22.4189 12.079 26.0009 16.498 26.0009C20.916 26.0009 24.498 22.4189 24.498 18.0009C24.498 13.5829 20.916 10.0009 16.498 10.0009ZM21.053 21.9059C18.897 24.4219 15.11 24.7129 12.594 22.5559C10.077 20.3999 9.78705 16.6119 11.944 14.0969C14.099 11.5799 17.887 11.2899 20.403 13.4469C22.918 15.6019 23.209 19.3909 21.053 21.9059Z" fill="#A4A1AA"/>
<path fill-rule="evenodd" clip-rule="evenodd" d="M16.498 14.0009C14.289 14.0009 12.499 15.7919 12.498 17.9999V18.0019C12.498 18.2769 12.722 18.5019 12.998 18.5019C13.274 18.5019 13.498 18.2769 13.498 18.0019V17.9999C13.499 16.3439 14.841 15.0009 16.498 15.0009C16.774 15.0009 16.998 14.7769 16.998 14.5009C16.998 14.2249 16.774 14.0009 16.498 14.0009Z" fill="#A4A1AA"/>
<path fill-rule="evenodd" clip-rule="evenodd" d="M29.99 9.04188L25.656 8.31888L24.283 4.88488C23.824 3.73988 22.73 2.99988 21.498 2.99988H11.498C10.266 2.99988 9.17205 3.73988 8.71205 4.88588L7.34005 8.31888L3.00705 9.04188C1.55305 9.28288 0.498047 10.5269 0.498047 11.9999V26.9999C0.498047 28.6539 1.84405 29.9999 3.49805 29.9999H29.498C31.152 29.9999 32.498 28.6539 32.498 26.9999V11.9999C32.498 10.5269 31.443 9.28288 29.99 9.04188ZM30.498 26.9999C30.498 27.5529 30.051 27.9999 29.498 27.9999H3.49805C2.94505 27.9999 2.49805 27.5529 2.49805 26.9999V11.9999C2.49805 11.5109 2.85205 11.0939 3.33405 11.0139L8.77805 10.1069L10.569 5.62888C10.722 5.24988 11.089 4.99988 11.498 4.99988H21.498C21.906 4.99988 22.273 5.24888 22.426 5.62888L24.217 10.1069L29.662 11.0139C30.144 11.0939 30.498 11.5109 30.498 11.9999V26.9999Z" fill="#A4A1AA"/>
</g>
<defs>
<clipPath id="clip0_322_10729">
<rect width="32" height="32" fill="white" transform="translate(0.5 -0.00012207)"/>
</clipPath>
</defs>
</svg>
